# AST/ASF file generated using VICON BodyLanguage
# -----------------------------------------------
:version 1.10
:name VICON
:units
  mass 1.0
  length 0.45
  angle deg
:documentation
   .ast/.asf automatically generated from VICON data using
   VICON BodyBuilder and BodyLanguage model FoxedUp or BRILLIANT.MOD
:root
   order TX TY TZ RX RY RZ
   axis XYZ
   position 0 0 0  
   orientation 0 0 0 
:bonedata
  begin
     id 1 
     name lhipjoint
     direction 0.635376 -0.686425 0.353719 
     length 2.47244 
     axis 0 0 0  XYZ
  end
  begin
     id 2 
     name lfemur
     direction 0.34202 -0.939693 0  
     length 7.25268  
     axis 0 0 20  XYZ
    dof rx ry rz
    limits (-160.0 20.0)
           (-70.0 70.0)
           (-60.0 70.0)
  end
  begin
     id 3 
     name ltibia
     direction 0.34202 -0.939693 0   
     length 7.6767   
     axis 0 0 20   XYZ
    dof rx
    limits (-10.0 170.0)
  end
  begin
     id 4 
     name lfoot
     direction 0.0803374 -0.220725 0.972022   
     length 2.22945   
     axis -90 7.62852e-016 20   XYZ
    dof rx rz
    limits (-45.0 90.0)
           (-70.0 20.0)
  end
  begin
     id 5 
     name ltoes
     direction 1.53579e-011 -4.21994e-011 1   
     length 1.11848   
     axis -90 7.62852e-016 20   XYZ
    dof rx
    limits (-90.0 20.0)
  end
  begin
     id 6 
     name rhipjoint
     direction -0.664428 -0.664335 0.342336   
     length 2.55466  
     axis 0 0 0  XYZ 
  end
  begin
     id 7 
     name rfemur
     direction -0.34202 -0.939693 0   
     length 6.83172   
     axis 0 0 -20   XYZ
    dof rx ry rz
    limits (-160.0 20.0)
           (-70.0 70.0)
           (-70.0 60.0)
  end
  begin
     id 8 
     name rtibia
     direction -0.34202 -0.939693 0   
     length 7.62692   
     axis 0 0 -20   XYZ
    dof rx
    limits (-10.0 170.0)
 end
 begin
     id 9 
     name rfoot
     direction -0.0949276 -0.260811 0.960711   
     length 2.19684  
     axis -90 -7.62852e-016 -20   XYZ
    dof rx rz
    limits (-45.0 90.0)
           (-20.0 70.0)
  end
  begin
     id 10 
     name rtoes
     direction -1.53543e-011 -4.2183e-011 1   
     length 1.09848   
     axis -90 -7.62852e-016 -20   XYZ
    dof rx
    limits (-90.0 20.0)
  end
  begin
     id 11 
     name lowerback
     direction 0.0118782 0.999815 -0.0151555   
     length 2.15772   
     axis 0 0 0   XYZ
    dof rx ry rz
    limits (-20.0 45.0)
           (-30.0 30.0)
           (-30.0 30.0)
  end
  begin
     id 12 
     name upperback
     direction 0.00130825 0.999065 0.0432113   
     length 2.14863   
     axis 0 0 0   XYZ
    dof rx ry rz
    limits (-20.0 45.0)
           (-30.0 30.0)
           (-30.0 30.0)
  end
  begin
     id 13 
     name thorax
     direction -0.00347005 0.998773 0.0494011   
     length 2.14936   
     axis 0 0 0   XYZ
    dof rx ry rz
    limits (-20.0 45.0)
           (-30.0 30.0)
           (-30.0 30.0)
  end
  begin
     id 14 
     name lowerneck
     direction -0.0262159 0.99424 0.103921   
     length 1.69373   
     axis 0 0 0   XYZ
    dof rx ry rz
    limits (-20.0 45.0)
           (-30.0 30.0)
           (-30.0 30.0)
  end
  begin
     id 15 
     name upperneck
     direction 0.0353511 0.977394 -0.20845   
     length 1.70857   
     axis 0 0 0   XYZ
    dof rx ry rz
    limits (-20.0 45.0)
           (-30.0 30.0)
           (-30.0 30.0)
  end
  begin
     id 16
     name head
     direction 0.0139214 0.996594 -0.0812836  
     length 1.72777  
     axis 0 0 0   XYZ
    dof rx ry rz
    limits (-20.0 45.0)
           (-30.0 30.0)
           (-30.0 30.0)
  end
  begin
     id 17 
     name lclavicle
     direction 0.841247 0.537205 -0.0609508  
     length 3.55371  
     axis 0 0 0   XYZ
    dof ry rz
    limits (-20.0 10.0)
           (0.0 20.0)
  end
  begin
     id 18 
     name lhumerus
     direction 1 -4.48964e-011 1.60116e-018   
     length 4.91377   
     axis -180 -30 -90   XYZ
    dof rx ry rz
    limits (-60.0 90.0)
           (-90.0 90.0)
           (-90.0 90.0)
  end
  begin
     id 19
     name lradius
     direction 1 -4.48989e-011 -8.93847e-027   
     length 3.00291   
     axis -180 -30 -90   XYZ
    dof rx
    limits (-10.0 170.0)
  end
  begin
     id 20
     name lwrist
     direction 1 -4.48932e-011 -7.31504e-027   
     length 1.50145   
     axis 5.74121e-015 90 90   XYZ
    dof ry
    limits (-180.0 0.0)
 end
  begin
     id 21 
     name lhand
     direction 1 -4.48971e-011 -1.46301e-026   
     length 0.450922   
     axis 9.33524e-015 90 90   XYZ
    dof rx rz
    limits (-90.0 90.0)
           (-45.0 45.0)
  end
  begin
     id 22 
     name lfingers
     direction 1 -4.49039e-011 -2.92602e-026   
     length 0.363545   
     axis 1.86705e-014 90 90   XYZ
    dof rx
    limits (0.0 90.0)
  end
  begin
     id 23
     name lthumb
     direction 0.707107 -6.34941e-011 0.707107   
     length 0.52198   
     axis -90 45 2.85299e-015   XYZ
    dof rx rz
    limits (-45.0 45.0)
           (-45.0 45.0)
  end
  begin
     id 24 
     name rclavicle
     direction -0.825079 0.56158 -0.0622297   
     length 3.39909  
     axis 0 0 0   XYZ 
    dof ry rz
    limits (-10.0 20.0)
           (-20.0 0.0)
  end
  begin
     id 25 
     name rhumerus
     direction -1 -4.48965e-011 1.61691e-027  
     length 4.86725   
     axis -180 30 90   XYZ
    dof rx ry rz
    limits (-90.0 60.0)
           (-90.0 90.0)
           (-90.0 90.0)
  end
  begin
     id 26 
     name rradius
     direction -1 -4.48964e-011 -2.25776e-027   
     length 3.17144   
     axis -180 30 90   XYZ
    dof rx
    limits (-10.0 170.0)
  end
  begin
     id 27 
     name rwrist
     direction -1 -4.48961e-011 -7.31504e-027   
     length 1.58572   
     axis 5.74121e-015 -90 -90   XYZ
    dof ry
    limits (-180.0 0.0)
  end
  begin
     id 28
     name rhand
     direction -1 -4.49013e-011 -1.46301e-026   
     length 0.419368   
     axis 9.33524e-015 -90 -90   XYZ
    dof rx rz
    limits (-90.0 90.0)
           (-45.0 45.0)
  end
  begin
     id 29
     name rfingers
     direction -1 -4.489e-011 -2.92602e-026   
     length 0.338105   
     axis 1.86705e-014 -90 -90   XYZ
    dof rx
    limits (0.0 90.0)
  end
  begin
     id 30
     name rthumb
     direction -0.707107 -6.35022e-011 0.707107   
     length 0.485453   
     axis -90 -45 -2.85299e-015   XYZ
    dof rx rz
    limits (-45.0 45.0)
           (-45.0 45.0)
  end
:hierarchy
  begin
    root lhipjoint rhipjoint lowerback
    lhipjoint lfemur
    lfemur ltibia
    ltibia lfoot
    lfoot ltoes
    rhipjoint rfemur
    rfemur rtibia
    rtibia rfoot
    rfoot rtoes
    lowerback upperback
    upperback thorax
    thorax lowerneck lclavicle rclavicle
    lowerneck upperneck
    upperneck head
    lclavicle lhumerus
    lhumerus lradius
    lradius lwrist
    lwrist lhand lthumb
    lhand lfingers
    rclavicle rhumerus
    rhumerus rradius
    rradius rwrist
    rwrist rhand rthumb
    rhand rfingers
  end

#!OML:ASF H:\Swim 2\Project 1\Capture day 1\Session 1\male.ASF
:FULLY-SPECIFIED
:DEGREES
404
root 4.0618 15.1681 9.80122 88.3548 -58.8217 8.01467
lowerback -0.926957 4.3765 8.5761
upperback -5.11413 5.92061 -5.51102
thorax -3.41696 2.5991 -10.7689
lowerneck -21.9903 -5.59641 -4.42464
upperneck 28.234 -8.5851 6.46985
head 13.7608 -3.2724 1.74565
rclavicle 4.13472e-014 -8.3092e-014
rhumerus 68.0392 -28.5305 -29.5949
rradius 67.2119
rwrist -74.4264
rhand -34.797 -12.1537
rfingers 7.12502
rthumb -7.9488 -41.9842
lclavicle 4.13472e-014 -8.3092e-014
lhumerus 108.963 22.2258 37.8115
lradius 59.1711
lwrist 74.3273
lhand -37.9414 -1.6238
lfingers 7.12502
lthumb -10.9827 28.0689
rfemur -45.4593 4.23408 -13.1789
rtibia 23.0214
rfoot 13.0798 -34.447
rtoes 27.5868
lfemur -49.7534 -19.3185 15.1406
ltibia 26.9595
lfoot -66.1362 16.7745
ltoes 53.6484
405
root 4.13084 15.1685 9.77702 87.9646 -58.9055 8.14176
lowerback -0.33896 4.37854 8.54026
upperback -4.94412 5.96562 -5.48826
thorax -3.56279 2.62197 -10.7676
lowerneck -21.8862 -5.54323 -4.22948
upperneck 28.6608 -8.60486 6.39843
head 13.9084 -3.26186 1.68777
rclavicle 4.45278e-014 2.78299e-014
rhumerus 67.6333 -29.4222 -27.9106
rradius 65.3993
rwrist -75.0893
rhand -34.29 -11.5552
rfingers 7.12502
rthumb -7.45954 -41.4036
lclavicle 4.45278e-014 2.78299e-014
lhumerus 109.26 23.4794 36.6738
lradius 57.2141
lwrist 74.7825
lhand -37.5129 -1.82352
lfingers 7.12502
lthumb -10.5694 27.8907
rfemur -46.1428 4.60714 -13.18
rtibia 23.2517
rfoot 12.9955 -34.7205
rtoes 27.8869
lfemur -50.7476 -20.1192 15.705
ltibia 27.154
lfoot -67.074 14.0809
ltoes 53.866
406
root 4.1986 15.1691 9.75158 87.6119 -58.977 8.21841
lowerback 0.260624 4.37394 8.50411
upperback -4.77817 6.0016 -5.45646
thorax -3.72317 2.63882 -10.7589
lowerneck -21.751 -5.49889 -4.0433
upperneck 29.062 -8.65821 6.40147
head 14.0474 -3.25724 1.65497
rclavicle -3.18055e-014 -1.80894e-014
rhumerus 67.2513 -30.2076 -26.2348
rradius 63.5909
rwrist -75.443
rhand -33.7386 -11.0923
rfingers 7.12502
rthumb -6.92727 -40.959
lclavicle -3.18055e-014 -1.80894e-014
lhumerus 109.522 24.6937 35.5578
lradius 55.2808
lwrist 75.0518
lhand -37.0316 -1.9482
lfingers 7.12502
lthumb -10.1052 27.7892
rfemur -46.8776 4.96769 -13.11
rtibia 23.5657
rfoot 13.0146 -34.8858
rtoes 28.1709
lfemur -51.4866 -19.8701 15.3801
ltibia 27.4801
lfoot -66.5078 12.6278
ltoes 53.8748
407
root 4.26449 15.1696 9.72593 87.3315 -59.0394 8.21959
lowerback 0.853697 4.35521 8.48218
upperback -4.6211 6.01763 -5.41622
thorax -3.89433 2.64352 -10.7506
lowerneck -21.5814 -5.42352 -3.89498
upperneck 29.4172 -8.67603 6.47935
head 14.1646 -3.23359 1.66558
rclavicle -7.95139e-014 -7.07673e-014
rhumerus 67.0425 -30.8466 -24.7286
rradius 61.7311
rwrist -75.3747
rhand -33.0449 -10.7663
rfingers 7.12502
rthumb -6.25754 -40.6539
lclavicle -7.95139e-014 -7.07673e-014
lhumerus 109.697 25.8843 34.432
lradius 53.4082
lwrist 75.183
lhand -36.5758 -2.05138
lfingers 7.12502
lthumb -9.66541 27.7069
rfemur -47.6536 5.30867 -12.9622
rtibia 23.9122
rfoot 13.1811 -34.9062
rtoes 28.374
lfemur -52.0256 -18.8224 14.3476
ltibia 27.9244
lfoot -64.8008 12.1671
ltoes 53.7538
408
root 4.32847 15.1691 9.7011 87.149 -59.1007 8.13141
lowerback 1.42155 4.3235 8.47503
upperback -4.47794 6.01435 -5.3718
thorax -4.07023 2.63661 -10.7456
lowerneck -21.4252 -5.3388 -3.82936
upperneck 29.8501 -8.69778 6.66676
head 14.3319 -3.20389 1.73473
rclavicle -4.13472e-014 -1.78906e-014
rhumerus 67.0988 -31.336 -23.5035
rradius 59.7871
rwrist -74.8152
rhand -32.1 -10.5482
rfingers 7.12502
rthumb -5.34526 -40.4607
lclavicle -4.13472e-014 -1.78906e-014
lhumerus 109.734 27.0616 33.2615
lradius 51.6624
lwrist 75.2526
lhand -36.1876 -2.14885
lfingers 7.12502
lthumb -9.29082 27.6264
rfemur -48.4623 5.62709 -12.7446
rtibia 24.2525
rfoot 13.4722 -34.7722
rtoes 28.5039
lfemur -52.4768 -17.3257 12.9039
ltibia 28.4714
lfoot -62.4263 12.3735
ltoes 53.57
409
root 4.39063 15.1671 9.67782 87.0944 -59.1696 7.94062
lowerback 1.93222 4.29303 8.47063
upperback -4.34703 6.00847 -5.33005
thorax -4.22707 2.62876 -10.7405
lowerneck -21.2773 -5.23611 -3.78813
upperneck 30.3008 -8.70771 6.90654
head 14.515 -3.16457 1.83285
rclavicle -4.45278e-014 -4.57205e-015
rhumerus 67.3158 -31.7589 -22.5065
rradius 57.8494
rwrist -73.8658
rhand -31.0003 -10.3425
rfingers 7.12502
rthumb -4.28346 -40.2792
lclavicle -4.45278e-014 -4.57205e-015
lhumerus 109.671 28.1866 32.0913
lradius 50.0456
lwrist 75.2529
lhand -35.9187 -2.30567
lfingers 7.12502
lthumb -9.03138 27.481
rfemur -49.3077 5.91747 -12.4659
rtibia 24.5646
rfoot 13.8629 -34.4746
rtoes 28.5687
lfemur -52.9443 -15.732 11.3597
ltibia 29.0989
lfoot -59.8799 12.9219
ltoes 53.3645
410
root 4.45126 15.1627 9.65671 87.1758 -59.2582 7.65328
lowerback 2.36927 4.25804 8.46942
upperback -4.23177 5.99088 -5.2997
thorax -4.36029 2.61546 -10.7435
lowerneck -21.1618 -5.10959 -3.7484
upperneck 30.7936 -8.69559 7.16069
head 14.7262 -3.11293 1.94314
rclavicle 1.78111e-013 -1.11319e-014
rhumerus 67.7042 -32.1103 -21.7813
rradius 55.947
rwrist -72.5705
rhand -29.8259 -10.0579
rfingers 7.12502
rthumb -3.14932 -40.0144
lclavicle 1.78111e-013 -1.11319e-014
lhumerus 109.492 29.257 30.8999
lradius 48.5732
lwrist 75.2032
lhand -35.7743 -2.55391
lfingers 7.12502
lthumb -8.89205 27.2387
rfemur -50.1896 6.17505 -12.1447
rtibia 24.8396
rfoot 14.2572 -34.0598
rtoes 28.6703
lfemur -53.4766 -14.2381 9.88
ltibia 29.7798
lfoot -57.4772 13.5889
ltoes 53.161
411
root 4.51065 15.1556 9.63798 87.3819 -59.3732 7.28813
lowerback 2.7248 4.22397 8.46321
upperback -4.13502 5.96805 -5.28405
thorax -4.46717 2.60047 -10.7527
lowerneck -21.0666 -4.95552 -3.67591
upperneck 31.311 -8.6477 7.37479
head 14.9491 -3.04745 2.04033
rclavicle -2.22639e-014 -5.98342e-014
rhumerus 68.2093 -32.3976 -21.2899
rradius 54.1364
rwrist -71.0459
rhand -28.7612 -9.66631
rfingers 7.12502
rthumb -2.12112 -39.6355
lclavicle -2.22639e-014 -5.98342e-014
lhumerus 109.248 30.2255 29.7471
lradius 47.2319
lwrist 75.0846
lhand -35.7855 -2.85499
lfingers 7.12502
lthumb -8.90279 26.9372
rfemur -51.1042 6.4064 -11.8011
rtibia 25.0809
rfoot 14.6214 -33.5689
rtoes 28.8053
lfemur -54.0912 -13.0121 8.5955
ltibia 30.4839
lfoot -55.515 14.0085
ltoes 53.0368
412
root 4.56887 15.1457 9.62156 87.6866 -59.5088 6.8715
lowerback 2.99947 4.19265 8.44696
upperback -4.05575 5.94232 -5.27994
thorax -4.54708 2.58537 -10.7614
lowerneck -20.9778 -4.77733 -3.5469
upperneck 31.8253 -8.56291 7.51822
head 15.1644 -2.96993 2.10717
rclavicle 1.11319e-013 1.05952e-013
rhumerus 68.7314 -32.6323 -20.9415
rradius 52.5032
rwrist -69.4644
rhand -27.9241 -9.20132
rfingers 7.12502
rthumb -1.31262 -39.177
lclavicle 1.11319e-013 1.05952e-013
lhumerus 108.986 31.0666 28.6848
lradius 45.9963
lwrist 74.8664
lhand -35.8353 -3.2179
lfingers 7.12502
lthumb -8.95092 26.5722
rfemur -52.0404 6.63296 -11.4515
rtibia 25.2986
rfoot 14.8611 -33.0886
rtoes 29.0387
lfemur -54.7762 -12.1006 7.54794
ltibia 31.1821
lfoot -54.1023 14.0525
ltoes 53.0119
413
root 4.62592 15.1332 9.60736 88.0688 -59.6597 6.42273
lowerback 3.19213 4.17113 8.41557
upperback -3.99266 5.92307 -5.28414
thorax -4.59644 2.57554 -10.7631
lowerneck -20.8723 -4.58398 -3.34604
upperneck 32.3156 -8.44791 7.56824
head 15.3551 -2.88513 2.12916
rclavicle 5.08889e-014 -6.7388e-014
rhumerus 69.1919 -32.8267 -20.6461
rradius 51.1074
rwrist -68.0209
rhand -27.4089 -8.74833
rfingers 7.12502
rthumb -0.815005 -38.7265
lclavicle 5.08889e-014 -6.7388e-014
lhumerus 108.744 31.7686 27.7538
lradius 44.8738
lwrist 74.5554
lhand -35.8729 -3.58683
lfingers 7.12502
lthumb -8.98718 26.2017
rfemur -52.9908 6.86566 -11.1026
rtibia 25.5062
rfoot 14.9688 -32.6574
rtoes 29.3155
lfemur -55.5149 -11.5195 6.75397
ltibia 31.853
lfoot -53.3053 13.5504
ltoes 53.1348
414
root 4.68177 15.1184 9.59475 88.4911 -59.8137 5.97116
lowerback 3.3193 4.1606 8.3752
upperback -3.94307 5.91363 -5.29138
thorax -4.62095 2.57224 -10.7572
lowerneck -20.7388 -4.39558 -3.1134
upperneck 32.7954 -8.33106 7.56152
head 15.5315 -2.80416 2.12273
rclavicle 5.40694e-014 -1.23246e-014
rhumerus 69.5571 -32.9945 -20.3546
rradius 49.964
rwrist -66.8202
rhand -27.0962 -8.3506
rfingers 7.12502
rthumb -0.513024 -38.3297
lclavicle 5.40694e-014 -1.23246e-014
lhumerus 108.536 32.3376 26.978
lradius 43.8812
lwrist 74.1546
lhand -35.8775 -3.92256
lfingers 7.12502
lthumb -8.99164 25.8658
rfemur -53.9397 7.13221 -10.7687
rtibia 25.7161
rfoot 14.8811 -32.3439
rtoes 29.691
lfemur -56.2949 -11.2848 6.23661
ltibia 32.4862
lfoot -53.1274 12.4556
ltoes 53.4112
415
root 4.73661 15.1016 9.58344 88.9602 -59.9663 5.51438
lowerback 3.38398 4.15879 8.32729
upperback -3.90875 5.91142 -5.30029
thorax -4.62487 2.57376 -10.7434
lowerneck -20.5592 -4.2003 -2.83731
upperneck 33.2064 -8.18844 7.49194
head 15.6581 -2.71845 2.08596
rclavicle -3.81667e-014 1.49089e-014
rhumerus 69.8361 -33.1357 -20.0706
rradius 49.0784
rwrist -65.9382
rhand -26.9213 -8.04654
rfingers 7.12502
rthumb -0.344043 -38.026
lclavicle -3.81667e-014 1.49089e-014
lhumerus 108.369 32.7961 26.341
lradius 43.0192
lwrist 73.7157
lhand -35.8215 -4.22317
lfingers 7.12502
lthumb -8.93753 25.5675
rfemur -54.8952 7.42323 -10.441
rtibia 25.9382
rfoot 14.6522 -32.111
rtoes 30.0521
lfemur -57.1155 -11.3664 5.99226
ltibia 33.0817
lfoot -53.5005 10.7767
ltoes 53.8007
416
root 4.79052 15.0831 9.57297 89.4656 -60.1172 5.06237
lowerback 3.39479 4.16372 8.27495
upperback -3.88803 5.91454 -5.31254
thorax -4.61136 2.57884 -10.726
lowerneck -20.3645 -4.02106 -2.58497
upperneck 33.6282 -8.06564 7.43278
head 15.792 -2.64218 2.05425
rclavicle 1.90833e-014 -2.68359e-014
rhumerus 70.0305 -33.2623 -19.7858
rradius 48.433
rwrist -65.392
rhand -26.7461 -7.83278
rfingers 7.12502
rthumb -0.174848 -37.8125
lclavicle 1.90833e-014 -2.68359e-014
lhumerus 108.223 33.1808 25.8061
lradius 42.3045
lwrist 73.3199
lhand -35.7427 -4.48503
lfingers 7.12502
lthumb -8.8615 25.3089
rfemur -55.8558 7.72639 -10.1114
rtibia 26.1805
rfoot 14.2979 -31.9619
rtoes 30.4043
lfemur -57.7776 -10.5138 4.93805
ltibia 33.6467
lfoot -52.7598 9.06
ltoes 54.2045
417
root 4.84339 15.0632 9.56309 89.9981 -60.2637 4.62162
lowerback 3.36717 4.16397 8.23156
upperback -3.87856 5.90924 -5.3308
thorax -4.58866 2.57945 -10.7172
lowerneck -20.1524 -3.84481 -2.35455
upperneck 34.005 -7.93713 7.38547
head 15.9031 -2.56618 2.03142
rclavicle 8.5875e-014 -7.87187e-014
rhumerus 70.1764 -33.3827 -19.5212
rradius 47.9909
rwrist -65.147
rhand -26.5774 -7.69238
rfingers 7.12502
rthumb -0.0119074 -37.6721
lclavicle 8.5875e-014 -7.87187e-014
lhumerus 108.077 33.5315 25.3218
lradius 41.7143
lwrist 73.0152
lhand -35.7475 -4.69961
lfingers 7.12502
lthumb -8.8662 25.0941
rfemur -56.8163 8.02056 -9.7577
rtibia 26.4469
rfoot 13.8514 -31.8733
rtoes 30.7501
lfemur -58.4467 -9.67919 3.87617
ltibia 34.1922
lfoot -52.036 7.31173
ltoes 54.5708
